<svg width="66" height="32" viewBox="0 0 66 32" fill="none" xmlns="http://www.w3.org/2000/svg">
<g style="mix-blend-mode:difference">
<path fill-rule="evenodd" clip-rule="evenodd" d="M53.0817 22.6264C52.4316 22.6264 51.9046 22.1189 51.9046 21.4928V17.2109H47.468V21.4928C47.468 22.1189 46.9409 22.6264 46.2908 22.6264C45.6406 22.6264 45.1136 22.1189 45.1136 21.4928V11.4871C45.1136 10.861 45.6406 10.3535 46.2908 10.3535C46.9409 10.3535 47.468 10.861 47.468 11.4871V15.3646H51.9046V11.4871C51.9046 10.861 52.4316 10.3535 53.0817 10.3535C53.7319 10.3535 54.2589 10.861 54.2589 11.4871V21.4928C54.2589 22.1189 53.7319 22.6264 53.0817 22.6264ZM14.029 22.6264C13.4453 22.6264 12.9355 22.2422 12.7976 21.6955L10.2659 11.7421C10.0862 11.0354 10.6415 10.3523 11.3976 10.3523C11.9554 10.3523 12.4356 10.733 12.5415 11.2607L14.0389 18.6872L15.7628 11.2618C15.8859 10.7306 16.376 10.3523 16.9412 10.3523C17.5064 10.3523 17.9964 10.7306 18.1196 11.2618L19.8435 18.6872L21.3581 11.2524C21.464 10.7294 21.9405 10.3523 22.4934 10.3523C23.2445 10.3523 23.7962 11.0306 23.6164 11.7326L21.0662 21.6967C20.9271 22.2422 20.4185 22.6252 19.8349 22.6252C19.2512 22.6252 18.7279 22.2292 18.5974 21.6706L16.9387 14.5358L15.2628 21.673C15.1323 22.2292 14.6188 22.6252 14.0253 22.6252L14.029 22.6264ZM49.6782 29.6925C57.3694 29.6925 63.605 23.6877 63.605 16.2813C63.605 8.87486 57.3694 2.87005 49.6782 2.87005C41.9871 2.87005 35.7515 8.87486 35.7515 16.2813C35.7515 23.6877 41.9871 29.6925 49.6782 29.6925ZM12.9639 1.52063C15.0757 -0.512988 18.5013 -0.505873 20.6032 1.53605L31.8912 12.4986C32.2015 12.7998 33.8097 12.5591 33.9254 12.1488C35.8094 5.47285 42.1484 0.563709 49.6782 0.563709C58.6931 0.563709 66 7.60133 66 16.2824C66 24.9636 58.6918 32 49.6782 32C42.0992 32 35.7269 27.0256 33.8885 20.2821C33.7752 19.8647 32.1264 19.5943 31.8038 19.8932L20.5158 30.3648C18.4348 32.2953 15.1422 32.3024 13.0525 30.3802L1.66733 19.9086C-0.520806 17.8963 -0.560237 14.5441 1.57864 12.4832L12.9639 1.52182V1.52063ZM18.9027 3.16057C17.7342 2.02578 15.8317 2.02222 14.6582 3.15227L3.273 14.1136C2.08474 15.2579 2.10692 17.1208 3.32228 18.239L14.7075 28.7106C15.8687 29.779 17.6972 29.7743 18.8535 28.7023L30.1414 18.2307C31.3445 17.1149 31.3666 15.265 30.1907 14.1231L18.9027 3.16176V3.16057Z" fill="white"/>
</g>
</svg>
