<svg width="106" height="16" viewBox="0 0 106 16" fill="none" xmlns="http://www.w3.org/2000/svg">
<path d="M3.84636 15.7335H6.32044L8.65927 5.53967L10.9758 15.7335H13.4499L17.3185 0.265652H14.3274L12.236 10.7698L9.85177 0.265652H7.46759L5.0834 10.7698L3.01425 0.265652H0L3.84636 15.7335Z" fill="white"/>
<path d="M20.0885 9.48442L21.8203 2.85838L23.5522 9.48442H20.0885ZM19.6167 0.265652L15.4784 15.7335H18.4473L19.4815 11.8115H24.16L25.195 15.7335H28.2315L24.047 0.265652H19.6159H19.6167Z" fill="white"/>
<path d="M31.3555 7.15769V2.59299H32.9975C34.3466 2.59299 35.2241 3.47944 35.2241 4.89728C35.2241 6.31511 34.3466 7.15769 32.9975 7.15769H31.3555ZM28.4542 15.7338H31.3555V9.48472H31.9402C33.2449 9.48472 34.3244 9.90561 34.6163 11.2796C34.9091 12.8087 34.7516 14.4484 35.1111 15.7338H38.3052C37.6528 14.4045 37.7427 12.4983 37.4731 10.9472C37.2479 9.83898 36.7762 8.7754 35.4262 8.50971C37.1358 8.06689 38.2153 6.64824 38.2153 4.7429C38.2153 1.79592 35.7412 0.266766 32.9975 0.266766H28.4542V15.7338Z" fill="white"/>
<path d="M39.4516 15.7335H48.2461V13.4064H42.3528V8.90835H47.3464V6.58131H42.3528V2.59269H48.1785V0.265652H39.4516V15.7335Z" fill="white"/>
<path d="M57.497 15.7335H60.3991V0.265652H57.497V6.58131H52.0318V0.265652H49.1305V15.7335H52.0318V8.90835H57.497V15.7335Z" fill="white"/>
<path d="M64.0046 8C64.0046 4.63213 65.3769 2.32704 67.4906 2.32704C69.6043 2.32704 70.9766 4.63132 70.9766 8C70.9766 11.3687 69.6043 13.673 67.4906 13.673C65.3769 13.673 64.0046 11.3687 64.0046 8ZM67.4906 16C71.3592 16 73.9232 12.7207 73.9232 8C73.9232 3.2793 71.36 0 67.4914 0C63.6228 0 61.0588 3.2793 61.0588 8C61.0588 12.7207 63.645 16 67.4914 16H67.4906Z" fill="white"/>
<path d="M80.0621 15.9772C83.7056 15.9772 85.6849 13.7168 85.6849 10.0605V0.265652H82.7836V10.0605C82.7836 12.3875 81.8163 13.6502 80.0621 13.6502C78.308 13.6502 77.3184 12.3867 77.3184 10.0605V0.265652H74.4394V10.0605C74.4394 13.7387 76.4187 15.9772 80.0621 15.9772Z" fill="white"/>
<path d="M91.5933 15.9992C94.5399 15.9992 96.6091 14.1377 96.6091 11.545C96.6091 5.36258 89.5242 7.68881 89.5242 4.16575C89.5242 3.19074 90.221 2.34897 91.3236 2.34897C92.493 2.34897 93.4827 3.34593 93.5726 5.36258L96.4516 5.03027C96.2718 1.86147 94.0228 0 91.3236 0C88.6244 0 86.5553 1.90534 86.5553 4.43226C86.533 10.1491 93.6855 8 93.6855 11.6563C93.6855 12.8304 92.8081 13.651 91.5941 13.651C89.9522 13.651 89.0079 12.2551 88.8726 9.86147L86.1058 10.2385C86.3078 13.7615 88.4224 16 91.5941 16L91.5933 15.9992Z" fill="white"/>
<path d="M97.2055 15.7335H106V13.4064H100.107V8.90835H105.1V6.58131H100.107V2.59269H105.932V0.265652H97.2055V15.7335Z" fill="white"/>
</svg>
