<svg width="44" height="50" viewBox="0 0 44 50" fill="none" xmlns="http://www.w3.org/2000/svg">
<circle cx="22" cy="22" r="22" fill="#D9FE7B"/>
<path d="M11.3174 13.9916C12.4418 12.8679 14.2662 12.8718 15.3858 14.0004L21.3965 20.0629C21.5581 20.2258 22.4204 20.0919 22.4805 19.8705C23.4834 16.1782 26.8584 13.4623 30.8682 13.4623L31.3155 13.474C35.9078 13.7069 39.5593 17.5045 39.5596 22.1547L39.5489 22.6019C39.3159 27.1944 35.5185 30.8459 30.8682 30.8461L30.4209 30.8353C25.9764 30.6101 22.413 27.0464 22.1875 22.6019C22.1869 22.5968 22.1787 22.5966 22.1778 22.6019C22.0738 23.1727 21.7998 23.7179 21.3496 24.1517L15.3389 29.9428C14.2305 31.0102 12.4771 31.0135 11.3643 29.9506L5.30179 24.1596C4.1369 23.0465 4.11554 21.1933 5.25492 20.0541L11.3174 13.9916ZM30.8682 14.7387C26.7726 14.7387 23.4525 18.0591 23.4522 22.1547C23.4523 26.2504 26.7725 29.5706 30.8682 29.5707C34.9638 29.5705 38.2841 26.2503 38.2842 22.1547C38.2839 18.0592 34.9637 14.7388 30.8682 14.7387ZM14.4795 14.8988C13.8576 14.2722 12.8443 14.27 12.2198 14.8939L6.15628 20.9564C5.52375 21.5893 5.53577 22.6195 6.18265 23.2377L12.2461 29.0277C12.8644 29.6183 13.8384 29.617 14.4541 29.0238L20.4649 23.2328C21.1055 22.6154 21.1167 21.5931 20.4903 20.9613L14.4795 14.8988ZM16.3926 18.8763C16.7924 18.8763 17.0866 19.2509 16.9912 19.639L15.6328 25.1498C15.5585 25.4513 15.2881 25.6634 14.9776 25.6635C14.6617 25.6635 14.3876 25.4443 14.3184 25.1361L13.4356 21.1898L12.543 25.1371C12.4733 25.4448 12.1993 25.6635 11.8838 25.6635C11.573 25.6633 11.3026 25.4507 11.2285 25.1488L9.87992 19.6439C9.78444 19.2531 10.0801 18.8765 10.4825 18.8763C10.7796 18.8763 11.0351 19.0866 11.0918 19.3783L11.8887 23.4847L12.8077 19.3793C12.8734 19.0853 13.1344 18.8763 13.4356 18.8763C13.7367 18.8765 13.9978 19.0854 14.0635 19.3793L14.9815 23.4847L15.7881 19.3734C15.8448 19.0844 16.0981 18.8764 16.3926 18.8763ZM32.6807 18.8763C33.0271 18.8763 33.3077 19.1569 33.3077 19.5033V25.0365C33.3074 25.3827 33.0269 25.6635 32.6807 25.6635C32.3345 25.6635 32.054 25.3827 32.0537 25.0365V22.6683H29.6905V25.0365C29.6902 25.3827 29.4097 25.6634 29.0635 25.6635C28.7173 25.6635 28.4368 25.3827 28.4366 25.0365V19.5033C28.4366 19.1569 28.7171 18.8763 29.0635 18.8763C29.4099 18.8764 29.6905 19.1569 29.6905 19.5033V21.6469H32.0537V19.5033C32.0537 19.1569 32.3343 18.8764 32.6807 18.8763Z" fill="black"/>
<path d="M21.134 48.5C21.5189 49.1667 22.4811 49.1667 22.866 48.5L26.3301 42.5C26.715 41.8333 26.2339 41 25.4641 41H18.5359C17.7661 41 17.285 41.8333 17.6699 42.5L21.134 48.5Z" fill="#D9FE7B"/>
</svg>
